<svg width="current" height="current" viewBox="0 0 40 40" fill="none" xmlns="http://www.w3.org/2000/svg">
<g clip-path="url(#clip0_237_13690)">
<circle cx="20" cy="20" r="19.5" fill="#F9FAFB" stroke="#9CA3AF"/>
<circle cx="20" cy="20" r="19" stroke="#E5E7EB" stroke-width="2"/>
<path d="M20.0005 7.5C25.7562 7.50022 30.6017 11.391 32.0542 16.6855C34.1736 16.8811 35.8334 18.6626 35.8335 20.833C35.8335 23.1342 33.9677 25 31.6665 25C31.5971 25 31.5281 24.9975 31.4595 24.9941C29.5317 29.4113 25.1279 32.4998 20.0005 32.5C14.5566 32.5 9.92546 29.0199 8.21045 24.1631C5.96605 24.0981 4.1665 22.2601 4.1665 20C4.16659 17.7399 5.96609 15.9009 8.21045 15.8359C9.92571 10.9796 14.5569 7.5 20.0005 7.5Z" fill="#E5E7EB"/>
<path d="M16.5771 16.6665C17.585 16.6666 18.4373 17.2119 18.8311 18.0024C19.1605 17.9488 19.5473 17.9165 20 17.9165C20.7616 17.9165 21.3363 18.007 21.7656 18.1411C22.216 17.5211 22.9841 17.1061 23.8369 17.106C24.3184 17.106 24.9612 17.4012 25.2822 17.8442C25.3223 17.955 25.4823 17.955 25.5225 17.8442C25.8034 17.3645 26.4855 17.0698 26.9268 17.0698C28.2909 17.0698 29.3739 18.0665 29.4141 19.3218V19.395C29.4141 20.0596 29.1338 20.651 28.6523 21.0571V21.0933C28.5721 21.1302 26.6865 22.6807 25.8037 23.3823C25.563 23.5669 25.2017 23.5669 24.9609 23.3823C24.0782 22.6809 22.1524 21.1302 22.1123 21.0933V21.0571C21.6308 20.6141 21.3496 20.0226 21.3496 19.395V19.3218C21.35 19.3101 21.352 19.2982 21.3525 19.2866C20.9856 19.2129 20.5398 19.1665 20 19.1665C19.6446 19.1665 19.3301 19.1879 19.0518 19.2222C18.9947 19.7924 18.7269 20.2952 18.3018 20.6538V20.6909C18.2152 20.7332 16.3342 22.2798 15.4531 22.98C15.2125 23.1642 14.8519 23.1642 14.6113 22.98C13.7308 22.2802 11.8118 20.735 11.7627 20.6909V20.6538C11.2813 20.2108 11.0001 19.6202 11 18.9927V18.9185C11.0402 17.7003 12.1634 16.7037 13.4873 16.7036C13.9687 16.7036 14.6106 16.9989 14.9316 17.4419C14.9718 17.5526 15.1327 17.5526 15.1729 17.4419C15.4537 16.9619 16.1358 16.6665 16.5771 16.6665Z" fill="#6B7280"/>
<path d="M17.9165 23.75C18.0554 24.0278 18.6665 24.5833 19.9998 24.5833C21.3332 24.5833 21.9443 24.0278 22.0832 23.75" stroke="#6B7280" stroke-width="1.25" stroke-linecap="round" stroke-linejoin="round"/>
<path d="M17.9939 9.29681C17.5567 9.63936 16.8694 11.0196 17.2481 11.9906C17.6268 12.9616 18.219 13.2021 18.5197 13.2795" stroke="#6B7280" stroke-width="0.993658" stroke-linecap="round"/>
<path d="M20.6503 9.98087C20.2124 10.2793 19.898 11.5632 20.3173 12.4602C20.6293 13.1278 21.4273 13.3869 21.6813 13.4522" stroke="#6B7280" stroke-width="0.993658" stroke-linecap="round"/>
<path d="M22.8587 10.4372C22.649 10.7121 22.8027 11.5046 23.1629 12.041C23.3758 12.3581 24.0207 12.8212 24.1914 12.8094" stroke="#6B7280" stroke-width="0.991667" stroke-linecap="round"/>
</g>
<defs>
<clipPath id="clip0_237_13690">
<rect width="40" height="40" fill="white"/>
</clipPath>
</defs>
</svg>
