<svg width="current" height="current" viewBox="0 0 113 20" fill="none" xmlns="http://www.w3.org/2000/svg">
<g clip-path="url(#clip0_945_10213)">
<path d="M2.62505 14.0816C3.03521 14.5714 3.5274 14.9592 4.08113 15.2653C4.59383 15.5918 5.18857 15.7347 5.88584 15.7347C6.33702 15.7347 6.72668 15.6531 7.09583 15.4898C7.44447 15.3469 7.71107 15.1224 7.95717 14.8367C8.18276 14.5714 8.34682 14.2449 8.49038 13.8571C8.59292 13.5102 8.65445 13.1224 8.65445 12.6735V0H13.761V12.3878C13.761 13.5714 13.5559 14.6122 13.2278 15.551C12.8586 16.5102 12.3459 17.3061 11.6691 18C10.9719 18.6531 10.1515 19.1837 9.18766 19.551C8.20327 19.898 7.09583 20.0408 5.86534 20.0204C4.7784 19.9796 3.75299 19.7551 2.7686 19.3878C1.78421 19 0.840835 18.4082 0 17.6327L2.62505 14.102V14.0816Z" fill="#BF5EFF"/>
<path d="M15.2578 19.5102L21.9025 0H28.342L34.9867 19.5102H29.8801L28.0139 14.0612L21.6769 15.7959L20.4054 19.5102H15.2988H15.2578ZM23.2355 11.1633L26.6809 10.2041L25.1222 5.63265L23.2355 11.1633Z" fill="#BF5EFF"/>
<path d="M53.8753 0H59.1049V19.5102H53.9983V9.77551L49.9787 19.5102H46.3078L42.2882 9.77551V19.5102H37.1816V0H42.4112L48.1125 13.8776L53.8343 0H53.8753Z" fill="#BF5EFF"/>
<path d="M79.2024 0H84.432V19.5102H79.3255V9.77551L75.3059 19.5102H71.6349L67.6153 9.77551V19.5102H62.5088V0H67.7384L73.4396 13.8776L79.1614 0H79.2024Z" fill="#BF5EFF"/>
<path d="M92.964 0V19.5102H87.8574V0H92.964Z" fill="#BF5EFF"/>
<path d="M106.766 4.20408V19.5102H101.659V4.20408H95.4453V0H113V4.20408H106.786H106.766Z" fill="#BF5EFF"/>
</g>
<defs>
<clipPath id="clip0_945_10213">
<rect width="113" height="20" fill="white"/>
</clipPath>
</defs>
</svg>
