<svg width="17" height="17" viewBox="0 0 17 17" fill="none" xmlns="http://www.w3.org/2000/svg">
<path d="M13.2812 4.91407L12.58 4.09827C11.9854 3.47377 11.27 2.97678 10.4772 2.63755C9.6845 2.29832 8.83103 2.12393 7.96875 2.125C4.44922 2.125 1.59375 4.98047 1.59375 8.50001C1.59375 12.0195 4.44922 14.875 7.96875 14.875C9.28725 14.8749 10.5733 14.4662 11.65 13.7051C12.7266 12.944 13.5409 11.868 13.9808 10.625" stroke="#F3F4F6" stroke-width="2" stroke-miterlimit="10" stroke-linecap="square"/>
<path d="M15.4061 2.27281V7.30474C15.4061 7.33997 15.3921 7.37375 15.3672 7.39866C15.3423 7.42356 15.3085 7.43756 15.2732 7.43756H10.2413C10.215 7.43758 10.1893 7.4298 10.1675 7.41521C10.1456 7.40061 10.1286 7.37986 10.1185 7.35558C10.1085 7.3313 10.1058 7.30458 10.111 7.2788C10.1161 7.25303 10.1288 7.22935 10.1474 7.21078L15.1793 2.17884C15.1979 2.16025 15.2215 2.14758 15.2473 2.14245C15.2731 2.13732 15.2998 2.13995 15.3241 2.15001C15.3484 2.16007 15.3691 2.17711 15.3837 2.19897C15.3983 2.22083 15.4061 2.24653 15.4061 2.27281Z" fill="#F3F4F6"/>
</svg>
