<svg width="19" height="22" viewBox="0 0 19 22" fill="none" xmlns="http://www.w3.org/2000/svg">
<path d="M9.15028 14.301C8.65322 14.301 8.25028 13.898 8.25028 13.401V3.02098L6.15041 5.04844C5.79283 5.39369 5.22307 5.38369 4.87782 5.02611C4.53256 4.66853 4.54256 4.09877 4.90014 3.75352L8.50004 0.277748C8.66388 0.106588 8.89463 0 9.15028 0C9.40594 0 9.6367 0.106599 9.80054 0.277773L13.4004 3.75351C13.758 4.09877 13.768 4.66853 13.4227 5.02611C13.0775 5.38369 12.5077 5.39369 12.1501 5.04844L10.0503 3.02098V13.401C10.0503 13.898 9.64734 14.301 9.15028 14.301Z" fill="#6B7280"/>
<path d="M4.25062 6.99975C4.74748 6.99975 5.15027 7.40253 5.15027 7.89939C5.15027 8.39625 4.74748 8.79904 4.25062 8.79904H3.70054C2.88598 8.79904 2.69214 8.81014 2.56062 8.85288C2.22574 8.96169 1.96319 9.22424 1.85438 9.55912C1.81164 9.69064 1.80054 9.88448 1.80054 10.699V18.099C1.80054 18.9136 1.81164 19.1074 1.85438 19.239C1.96319 19.5738 2.22574 19.8364 2.56062 19.9452C2.69214 19.9879 2.88598 19.999 3.70054 19.999H14.6005C15.4151 19.999 15.6089 19.9879 15.7405 19.9452C16.0753 19.8364 16.3379 19.5738 16.4467 19.239C16.4894 19.1074 16.5005 18.9136 16.5005 18.099V10.699C16.5005 9.88448 16.4894 9.69064 16.4467 9.55912C16.3379 9.22424 16.0753 8.96169 15.7405 8.85288C15.6089 8.81014 15.4151 8.79904 14.6005 8.79904H14.0499C13.5531 8.79904 13.1503 8.39625 13.1503 7.89939C13.1503 7.40253 13.5531 6.99975 14.0499 6.99975H14.2354C14.7652 6.99973 15.2165 6.99972 15.5869 7.02999C15.9761 7.06178 16.3546 7.13142 16.7166 7.31583C17.2622 7.59386 17.7059 8.03751 17.9839 8.58318C18.1683 8.94511 18.238 9.3237 18.2698 9.71287C18.3 10.0833 18.3 10.5344 18.3 11.0643V17.7352C18.3 18.265 18.3 18.7162 18.2698 19.0866C18.238 19.4758 18.1683 19.8544 17.9839 20.2163C17.7059 20.762 17.2622 21.2056 16.7166 21.4837C16.3546 21.6681 15.9761 21.7377 15.5869 21.7695C15.2165 21.7998 14.7653 21.7998 14.2354 21.7998H4.0646C3.53473 21.7998 3.08355 21.7998 2.71312 21.7695C2.32396 21.7377 1.94536 21.6681 1.58343 21.4837C1.03776 21.2056 0.594117 20.762 0.316084 20.2163C0.13167 19.8544 0.0620361 19.4758 0.0302405 19.0866C-2.34433e-05 18.7162 -1.24181e-05 18.2651 5.33305e-07 17.7352V11.0643C-1.24181e-05 10.5345 -2.34451e-05 10.0833 0.0302405 9.71287C0.0620361 9.3237 0.13167 8.94511 0.316084 8.58318C0.594117 8.03751 1.03776 7.59386 1.58343 7.31583C1.94536 7.13142 2.32396 7.06178 2.71312 7.02999C3.08353 6.99972 3.53468 6.99973 4.06451 6.99975H4.25062Z" fill="#6B7280"/>
</svg>
