<svg viewBox="0 0 145 144" fill="none" xmlns="http://www.w3.org/2000/svg">
  <g clip-path="url(#clip0_1778_14196)">
    <path d="M27.8594 0H116.57C131.816 0.0646668 144.156 13.6835 144.215 30.5098V113.49C144.215 121.574 141.32 129.321 136.152 135.037L135.895 135.296C130.75 140.87 123.836 143.987 116.629 144H27.8594C20.5352 144 13.5039 140.767 8.33594 135.037L8.10156 134.753C3.05078 129.075 0.214844 121.444 0.214844 113.49V30.5098C0.261719 13.6835 12.6133 0.0517334 27.8594 0ZM63.4961 61.7309L93.0859 84.5324C95.1602 85.981 95.7695 89.0203 94.4453 91.2966C94.1289 91.8398 93.7305 92.3054 93.25 92.6805L63.7539 115.172C62.9688 115.896 61.9727 116.297 60.9414 116.297C58.4922 116.323 56.4883 114.137 56.4648 111.434C56.4648 111.421 56.4648 111.408 56.4648 111.395V65.7273C56.4297 63.0372 58.3867 60.8256 60.8242 60.7868C61.7852 60.7738 62.7227 61.1101 63.4961 61.7309ZM8.82812 34.2346H25.2344L35.8516 9.50602H27.8594C17.3594 9.54482 8.86328 18.9215 8.82812 30.5098V34.2346ZM43.6328 9.50602L33.0273 34.2346H62.7461L73.375 9.54482L43.6328 9.50602ZM81.1328 9.50602L70.4336 34.2346H99.3789L110.02 9.50602H81.1328ZM117.836 9.50602L107.16 34.2346H135.602V30.5098C135.555 19.4518 127.785 10.3079 117.789 9.54482L117.836 9.50602ZM135.648 44.0122H8.82812V113.49C8.85156 118.961 10.8086 124.199 14.2773 128.105L14.4766 128.312C18.0156 132.257 22.832 134.481 27.8594 134.507H116.57C121.516 134.507 126.273 132.373 129.812 128.558L130 128.325C133.574 124.406 135.602 119.064 135.602 113.503V44.051L135.648 44.0122Z" fill="#4A4E55"/>
  </g>
  <defs>
    <clipPath id="clip0_1778_14196">
      <rect width="144" height="144" fill="white" transform="translate(0.214844)"/>
    </clipPath>
  </defs>
</svg>
